<svg width="100" height="100" viewBox="0 0 100 100" fill="none" xmlns="http://www.w3.org/2000/svg">
<rect x="0.5" y="0.5" width="99" height="99" fill="#538D4E" stroke="black"/>
<path d="M63.264 53.256V57.48H37.408V53.256H63.264ZM70.976 68.616H75.616V73H55.104V68.616H65.952L49.504 28.648L52.48 30.696H47.808L50.784 28.648L34.336 68.616H45.184V73H24.896V68.616H29.568L47.552 24.872H52.96L70.976 68.616Z" fill="#FCD34D"/>
<path d="M63.264 53.256H64.264V52.256H63.264V53.256ZM63.264 57.48V58.48H64.264V57.48H63.264ZM37.408 57.48H36.408V58.48H37.408V57.48ZM37.408 53.256V52.256H36.408V53.256H37.408ZM70.976 68.616L70.0514 68.9968L70.3064 69.616H70.976V68.616ZM75.616 68.616H76.616V67.616H75.616V68.616ZM75.616 73V74H76.616V73H75.616ZM55.104 73H54.104V74H55.104V73ZM55.104 68.616V67.616H54.104V68.616H55.104ZM65.952 68.616V69.616H67.4449L66.8768 68.2354L65.952 68.616ZM49.504 28.648L50.0709 27.8242L47.2985 25.9163L48.5792 29.0286L49.504 28.648ZM52.48 30.696V31.696H55.6971L53.0469 29.8722L52.48 30.696ZM47.808 30.696L47.2411 29.8722L44.5909 31.696H47.808V30.696ZM50.784 28.648L51.7088 29.0286L52.9895 25.9163L50.2171 27.8242L50.784 28.648ZM34.336 68.616L33.4112 68.2354L32.8431 69.616H34.336V68.616ZM45.184 68.616H46.184V67.616H45.184V68.616ZM45.184 73V74H46.184V73H45.184ZM24.896 73H23.896V74H24.896V73ZM24.896 68.616V67.616H23.896V68.616H24.896ZM29.568 68.616V69.616H30.2381L30.4929 68.9962L29.568 68.616ZM47.552 24.872V23.872H46.8819L46.6271 24.4918L47.552 24.872ZM52.96 24.872L53.8847 24.4912L53.6296 23.872H52.96V24.872ZM62.264 53.256V57.48H64.264V53.256H62.264ZM63.264 56.48H37.408V58.48H63.264V56.48ZM38.408 57.48V53.256H36.408V57.48H38.408ZM37.408 54.256H63.264V52.256H37.408V54.256ZM70.976 69.616H75.616V67.616H70.976V69.616ZM74.616 68.616V73H76.616V68.616H74.616ZM75.616 72H55.104V74H75.616V72ZM56.104 73V68.616H54.104V73H56.104ZM55.104 69.616H65.952V67.616H55.104V69.616ZM66.8768 68.2354L50.4288 28.2674L48.5792 29.0286L65.0272 68.9966L66.8768 68.2354ZM48.9371 29.4718L51.9131 31.5198L53.0469 29.8722L50.0709 27.8242L48.9371 29.4718ZM52.48 29.696H47.808V31.696H52.48V29.696ZM48.3749 31.5198L51.3509 29.4718L50.2171 27.8242L47.2411 29.8722L48.3749 31.5198ZM49.8592 28.2674L33.4112 68.2354L35.2608 68.9966L51.7088 29.0286L49.8592 28.2674ZM34.336 69.616H45.184V67.616H34.336V69.616ZM44.184 68.616V73H46.184V68.616H44.184ZM45.184 72H24.896V74H45.184V72ZM25.896 73V68.616H23.896V73H25.896ZM24.896 69.616H29.568V67.616H24.896V69.616ZM30.4929 68.9962L48.4769 25.2522L46.6271 24.4918L28.6431 68.2358L30.4929 68.9962ZM47.552 25.872H52.96V23.872H47.552V25.872ZM52.0354 25.2528L70.0514 68.9968L71.9007 68.2352L53.8847 24.4912L52.0354 25.2528Z" fill="black"/>
</svg>
